<svg
  id="Capa_1"
  enable-background="new 0 0 512 512"
  height="24"
  viewBox="0 0 512 512"
  width="24"
  xmlns="http://www.w3.org/2000/svg"
>
  <g>
    <path
      fill="#ffffff"
      d="m497 271h-30c-19.555 0-36.228 12.542-42.42 30h-32.58v-15c0-24.813-20.187-45-45-45h-302c-24.813 0-45 20.187-45 45v150c0 24.813 20.187 45 45 45h302c24.813 0 45-20.187 45-45v-15h32.58c6.192 17.458 22.865 30 42.42 30h30c8.284 0 15-6.716 15-15v-150c0-8.284-6.716-15-15-15zm-135 165c0 8.271-6.729 15-15 15h-302c-8.271 0-15-6.729-15-15v-150c0-8.271 6.729-15 15-15h302c8.271 0 15 6.729 15 15zm30-105h30v60h-30zm90 90h-15c-8.271 0-15-6.729-15-15v-90c0-8.271 6.729-15 15-15h15z"
    />
    <circle fill="#ffffff" cx="256" cy="316" r="15" />
    <circle fill="#ffffff" cx="316" cy="316" r="15" />
    <path
      fill="#ffffff"
      d="m196 331h-120c-8.284 0-15 6.716-15 15v60c0 8.284 6.716 15 15 15h120c8.284 0 15-6.716 15-15v-60c0-8.284-6.716-15-15-15zm-15 60h-90v-30h90z"
    />
    <path
      fill="#ffffff"
      d="m196 190.029c18.388 30.516 51.849 50.971 90 50.971 57.897 0 105-47.103 105-105s-47.103-105-105-105c-38.151 0-71.612 20.455-90 50.971-18.388-30.516-51.849-50.971-90-50.971-58.448 0-106 47.103-106 105s47.552 105 106 105c38.151 0 71.612-20.455 90-50.971zm90-129.029c41.355 0 75 33.645 75 75s-33.645 75-75 75-75-33.645-75-75 33.645-75 75-75zm-180 150c-41.906 0-76-33.645-76-75s34.094-75 76-75c41.355 0 75 33.645 75 75s-33.645 75-75 75z"
    />
    <path
      fill="#ffffff"
      d="m106 91c-24.813 0-45 20.187-45 45s20.187 45 45 45 45-20.187 45-45-20.187-45-45-45zm0 60c-8.271 0-15-6.729-15-15s6.729-15 15-15 15 6.729 15 15-6.729 15-15 15z"
    />
    <path
      fill="#ffffff"
      d="m286 181c24.813 0 45-20.187 45-45s-20.187-45-45-45-45 20.187-45 45 20.187 45 45 45zm0-60c8.271 0 15 6.729 15 15s-6.729 15-15 15-15-6.729-15-15 6.729-15 15-15z"
    />
  </g>
</svg>
