<?xml version="1.0" encoding="UTF-8"?><svg id="Layer_1" xmlns="http://www.w3.org/2000/svg" viewBox="0 0 490 490"><path d="M437.5,288.75c-1.73,0-3.42,.51-4.86,1.47l-26.25,17.5c-4.02,2.68-5.11,8.11-2.43,12.13,2.68,4.02,8.11,5.11,12.13,2.43l11.4-7.61c-8.41,64.43-63.25,114.07-130,114.07-4.83,0-8.75,3.92-8.75,8.75s3.92,8.75,8.75,8.75c76.72,0,139.99-58.32,147.89-132.97l13.5,9.01h0c4.02,2.68,9.45,1.59,12.13-2.43s1.59-9.45-2.43-12.13l-26.25-17.5c-1.44-.96-3.13-1.47-4.86-1.47h0Z" style="fill:#fff;"/><path d="M367.5,0C299.95,0,245,54.95,245,122.5s54.95,122.5,122.5,122.5,122.5-54.95,122.5-122.5c0-3.37-1.94-6.44-4.98-7.89s-6.65-1.03-9.27,1.09c-35.1,28.34-73.21,19.59-97.12-4.32-23.91-23.91-32.67-62.02-4.32-97.12,2.12-2.62,2.55-6.23,1.09-9.27-1.45-3.04-4.52-4.98-7.89-4.98h0Zm-16.27,20.78c-19.16,37.34-10.27,77.67,15.02,102.97,25.3,25.3,65.63,34.18,102.97,15.02-8.08,50-49.4,88.73-101.72,88.73-58.09,0-105-46.91-105-105,0-52.32,38.73-93.63,88.73-101.72h0Z" style="fill:#fff;"/><path d="M192.5,43.75c-27.2,0-52.76,7.32-74.72,20.1-4.18,2.43-5.59,7.79-3.16,11.97,2.43,4.18,7.79,5.59,11.96,3.16,19.37-11.27,41.85-17.72,65.91-17.72,2.32,0,4.55-.92,6.19-2.56s2.56-3.87,2.56-6.19-.92-4.55-2.56-6.19-3.87-2.56-6.19-2.56h0Z" style="fill:#fff;"/><path d="M70.88,113.45c-2.92,.18-5.55,1.81-7.02,4.34-10.28,17.66-16.95,37.68-19.19,58.98l-13.55-9.04h0c-1.44-.96-3.12-1.47-4.85-1.47-2.93,0-5.66,1.46-7.28,3.9-2.68,4.02-1.59,9.45,2.43,12.13l26.25,17.5c2.94,1.96,6.77,1.96,9.71,0l26.25-17.5c4.02-2.68,5.11-8.11,2.43-12.13-2.68-4.02-8.11-5.11-12.14-2.43l-11.54,7.69c2.29-17.62,8.05-34.12,16.61-48.82,2.43-4.18,1.02-9.53-3.16-11.96-1.49-.87-3.21-1.28-4.94-1.18h0Z" style="fill:#fff;"/><path d="M140,210c-4.83,0-8.75,3.92-8.75,8.75v26.7c-22.37,1.86-42.77,10.73-58.98,24.46l-18.9-18.9c-1.58-1.58-3.7-2.5-5.93-2.57-.25,0-.49,0-.73,.02-2.15,.12-4.18,1.02-5.71,2.55-3.42,3.41-3.42,8.95,0,12.37l18.9,18.9c-13.72,16.21-22.59,36.61-24.46,58.98H8.75c-4.83,0-8.75,3.92-8.75,8.75,0,2.32,.92,4.55,2.56,6.19s3.87,2.56,6.19,2.56h26.69c1.86,22.37,10.73,42.77,24.46,58.98l-18.9,18.9c-3.42,3.42-3.42,8.96,0,12.37,3.41,3.42,8.95,3.42,12.37,0l18.9-18.9c16.21,13.72,36.6,22.59,58.98,24.46v26.69c0,2.32,.92,4.55,2.56,6.19s3.87,2.56,6.19,2.56,4.55-.92,6.19-2.56,2.56-3.87,2.56-6.19v-26.7c22.37-1.86,42.77-10.73,58.98-24.46l18.9,18.9c3.42,3.42,8.96,3.42,12.38,0s3.41-8.95,0-12.37l-18.9-18.9c13.72-16.21,22.59-36.61,24.46-58.98h26.69c2.32,0,4.55-.92,6.19-2.56s2.56-3.87,2.56-6.19-.92-4.55-2.56-6.19-3.87-2.56-6.19-2.56h-26.7c-1.86-22.37-10.73-42.77-24.46-58.98l18.9-18.9h0c3.41-3.42,3.41-8.96,0-12.37-1.58-1.58-3.7-2.5-5.93-2.57-.25,0-.5,0-.75,.02-2.14,.12-4.17,1.03-5.69,2.55l-18.9,18.9c-16.21-13.72-36.61-22.59-58.98-24.46v-26.7c0-2.32-.92-4.55-2.56-6.19s-3.87-2.56-6.19-2.56h0Zm0,52.5c48.43,0,87.5,39.07,87.5,87.5s-39.07,87.5-87.5,87.5-87.5-39.07-87.5-87.5,39.07-87.5,87.5-87.5Z" style="fill:#fff;"/></svg>