<?xml version="1.0" encoding="UTF-8"?><svg id="Layer_1" xmlns="http://www.w3.org/2000/svg" viewBox="0 0 559.92 559.96"><path d="M543.67,384.4l-62.98,62.98c-6.56-2.75-13.94-2.75-20.5,0l-5.31-5.31h0c3.94-5.98,6.04-12.98,6.04-20.14,.11-10.07-3.93-19.73-11.17-26.73l-40.46-40.09c-20.04-20.02-31.3-47.19-31.3-75.52s11.26-55.5,31.3-75.52l40.46-40.46c6.14-5.84,10.06-13.64,11.1-22.05,1.04-8.41-.88-16.92-5.42-24.08l5.49-5.49c3.23,1.44,6.72,2.19,10.25,2.2,3.48,.01,6.91-.74,10.07-2.2l63.16,62.98c1.66,1.77,3.98,2.77,6.41,2.77s4.75-1,6.41-2.77c1.73-1.72,2.71-4.06,2.71-6.5s-.97-4.78-2.71-6.5l-62.98-62.98c2.91-6.25,3.12-13.43,.57-19.84-2.55-6.41-7.62-11.49-14.04-14.04-6.41-2.55-13.59-2.34-19.84,.57L397.95,2.71c-1.71-1.73-4.05-2.71-6.5-2.71s-4.78,.97-6.5,2.71c-1.77,1.66-2.77,3.98-2.77,6.41s1,4.75,2.77,6.41l62.98,63.16c-2.74,6.5-2.74,13.82,0,20.32l-5.49,5.49c-7.17-4.42-15.62-6.3-23.99-5.34-8.37,.96-16.17,4.71-22.14,10.65l-40.46,40.82c-20.04,20-47.2,31.23-75.52,31.23s-55.47-11.23-75.52-31.23l-40.09-40.82c-5.95-6.24-13.92-10.17-22.5-11.11s-17.2,1.18-24.37,5.98l-5.31-5.31c2.75-6.56,2.75-13.94,0-20.5l62.43-62.61c3.51-3.62,3.51-9.38,0-13-3.62-3.51-9.38-3.51-13,0l-62.98,63.16c-4.66-2.13-9.86-2.78-14.9-1.86-5.04,.92-9.68,3.36-13.29,6.98-4.87,4.84-7.58,11.44-7.51,18.31,.03,3.55,.84,7.05,2.38,10.25L2.71,162.71c-1.73,1.72-2.71,4.06-2.71,6.5s.97,4.78,2.71,6.5c1.67,1.73,4,2.66,6.41,2.56,2.41,.1,4.74-.83,6.41-2.56l63.16-62.97c3.18,1.38,6.6,2.12,10.07,2.2,3.52-.09,7-.84,10.25-2.2l5.68,5.68c-4.07,7.16-5.68,15.46-4.59,23.62,1.09,8.16,4.83,15.75,10.63,21.59l40.64,40.46c20.05,20.02,31.31,47.19,31.31,75.52s-11.26,55.5-31.31,75.52l-40.64,40.64c-7.17,7.03-11.14,16.69-10.98,26.73,.05,6.85,1.95,13.55,5.49,19.41l-5.49,5.49c-6.52-2.92-13.98-2.92-20.5,0l-62.98-62.98c-3.62-3.51-9.38-3.51-13,0-3.51,3.62-3.51,9.38,0,13l63.16,62.98h0c-2.13,4.66-2.78,9.86-1.86,14.9s3.36,9.68,6.98,13.29c3.5,3.79,8.12,6.38,13.18,7.4,5.06,1.02,10.32,.41,15.01-1.73l62.98,63.16h0c3.66,3.42,9.34,3.42,13,0,3.51-3.62,3.51-9.38,0-13l-62.97-63.71c2.75-6.56,2.75-13.94,0-20.5l5.31-5.49c7.24,4.54,15.82,6.46,24.31,5.46,8.49-1,16.38-4.86,22.37-10.96l40.64-40.64h0c20.02-20.05,47.18-31.31,75.51-31.31s55.5,11.26,75.52,31.31l40.46,40.64c5.86,5.78,13.44,9.5,21.6,10.59,8.16,1.09,16.45-.51,23.62-4.55l5.68,5.68c-1.39,3.24-2.14,6.72-2.2,10.25,.09,3.53,.84,7,2.2,10.25l-63.34,62.97c-3.49,3.56-3.49,9.26,0,12.82,1.75,1.75,4.12,2.74,6.59,2.75,2.41-.04,4.71-1.02,6.41-2.75l62.79-62.98c7.83,3.55,16.93,2.88,24.15-1.79,7.22-4.67,11.57-12.68,11.55-21.28-.06-3.53-.8-7.01-2.2-10.25l62.98-62.98h0c3.74-3.59,3.87-9.53,.28-13.27-3.59-3.74-9.53-3.86-13.27-.28h0ZM475.94,83.81c1.38,1.31,2.16,3.13,2.16,5.04s-.78,3.72-2.16,5.04c-1.3,1.5-3.16,2.4-5.14,2.48s-3.91-.68-5.32-2.09c-1.4-1.41-2.16-3.33-2.09-5.32s.97-3.85,2.48-5.14c2.79-2.77,7.29-2.77,10.07,0h0Zm-392.13,10.8c-1.41-1.33-2.21-3.18-2.2-5.12,.18-3.86,3.27-6.96,7.14-7.14,1.89,.03,3.71,.75,5.12,2.02,2.79,2.85,2.79,7.4,0,10.25-2.79,2.77-7.29,2.77-10.07,0h0Zm.73,381.33c-1.39-1.34-2.17-3.2-2.17-5.12s.79-3.78,2.17-5.12c2.83-2.44,7.06-2.28,9.7,.36,2.64,2.64,2.8,6.87,.36,9.7-1.29,1.4-3.09,2.21-5,2.25-1.9,.03-3.73-.71-5.07-2.07h0Zm324.76-39.36l-40.46-40.46c-21.22-21.36-49.43-34.36-79.45-36.61v-48.33c0-2.43-.96-4.75-2.68-6.47-1.71-1.72-4.04-2.68-6.47-2.68-5.05,0-9.15,4.1-9.15,9.15v47.96c-29.97,2.25-58.12,15.25-79.27,36.61l-40.46,40.46c-3.73,3.53-8.68,5.49-13.82,5.49s-10.08-1.96-13.82-5.49c-3.66-3.67-5.71-8.64-5.71-13.82s2.05-10.15,5.71-13.82l41-40.46c21.43-21.09,34.45-49.27,36.61-79.27h48.7c5.01-.1,9.05-4.14,9.15-9.15,0-2.43-.96-4.76-2.68-6.47-1.72-1.72-4.05-2.68-6.47-2.68h-48.7c-2.16-30.05-15.17-58.29-36.61-79.45l-41-40.46c-3.66-3.67-5.71-8.64-5.71-13.82s2.05-10.15,5.71-13.82c3.69-3.61,8.65-5.63,13.82-5.63s10.13,2.02,13.82,5.63l40.46,40.64h0c21.13,21.38,49.29,34.38,79.27,36.61v48.7c0,2.43,.96,4.76,2.68,6.47,1.72,1.72,4.05,2.68,6.47,2.68s4.76-.96,6.47-2.68c1.72-1.71,2.68-4.04,2.68-6.47v-49.24c30.03-2.22,58.25-15.23,79.45-36.61l40.46-40.64c3.74-3.53,8.68-5.49,13.82-5.49s10.09,1.96,13.82,5.49c3.66,3.67,5.71,8.64,5.71,13.82s-2.05,10.15-5.71,13.82l-40.64,40.46c-21.46,21.16-34.47,49.4-36.61,79.45h-48.52c-5.05,0-9.15,4.1-9.15,9.15,.1,5.02,4.14,9.05,9.15,9.15h48.7c2.15,30,15.17,58.18,36.61,79.27l40.64,40.46c3.65,3.67,5.71,8.64,5.71,13.82s-2.05,10.15-5.71,13.82c-3.68,3.66-8.62,5.75-13.8,5.86-5.18,.1-10.21-1.8-14.02-5.31v.37Zm66.64,39.36c-2.79,2.77-7.29,2.77-10.07,0-1.29-1.32-2-3.1-2.01-4.94,0-1.9,.71-3.73,2.01-5.13,1.41-1.27,3.23-1.98,5.13-2.01,1.84,0,3.62,.73,4.94,2.01,1.41,1.33,2.21,3.19,2.2,5.13,.01,1.88-.79,3.68-2.2,4.94h0Z"/></svg>