<svg xmlns="http://www.w3.org/2000/svg" viewBox="0 0 559.92 559.96" fill="white" xmlns:v="https://vecta.io/nano"><path d="M543.67 384.4l-62.98 62.98a26.5 26.5 0 0 0-20.5 0l-5.31-5.31h0a36.6 36.6 0 0 0 6.04-20.14c.11-10.07-3.93-19.73-11.17-26.73l-40.46-40.09a106.75 106.75 0 0 1 0-151.04l40.46-40.46a36.64 36.64 0 0 0 11.1-22.05c1.04-8.41-.88-16.92-5.42-24.08l5.49-5.49c3.23 1.44 6.72 2.19 10.25 2.2 3.48.01 6.91-.74 10.07-2.2l63.16 62.98c1.66 1.77 3.98 2.77 6.41 2.77s4.75-1 6.41-2.77c1.73-1.72 2.71-4.06 2.71-6.5a9.13 9.13 0 0 0-2.71-6.5l-62.98-62.98c2.91-6.25 3.12-13.43.57-19.84s-7.62-11.49-14.04-14.04c-6.41-2.55-13.59-2.34-19.84.57L397.95 2.71a9.14 9.14 0 0 0-6.5-2.71c-2.45 0-4.78.97-6.5 2.71-1.77 1.66-2.77 3.98-2.77 6.41s1 4.75 2.77 6.41l62.98 63.16c-2.74 6.5-2.74 13.82 0 20.32l-5.49 5.49a37.56 37.56 0 0 0-23.99-5.34c-8.37.96-16.17 4.71-22.14 10.65l-40.46 40.82c-20.04 20-47.2 31.23-75.52 31.23a106.92 106.92 0 0 1-75.52-31.23l-40.09-40.82c-5.95-6.24-13.92-10.17-22.5-11.11s-17.2 1.18-24.37 5.98l-5.31-5.31a26.5 26.5 0 0 0 0-20.5l62.43-62.61c3.51-3.62 3.51-9.38 0-13-3.62-3.51-9.38-3.51-13 0L98.99 66.42a25.03 25.03 0 0 0-14.9-1.86 25.16 25.16 0 0 0-13.29 6.98c-4.87 4.84-7.58 11.44-7.51 18.31.03 3.55.84 7.05 2.38 10.25L2.71 162.71C.98 164.43 0 166.77 0 169.21a9.13 9.13 0 0 0 2.71 6.5c1.67 1.73 4 2.66 6.41 2.56 2.41.1 4.74-.83 6.41-2.56l63.16-62.97a26.84 26.84 0 0 0 10.07 2.2 28.46 28.46 0 0 0 10.25-2.2l5.68 5.68c-4.07 7.16-5.68 15.46-4.59 23.62a37.75 37.75 0 0 0 10.63 21.59l40.64 40.46a106.72 106.72 0 0 1 0 151.04l-40.64 40.64c-7.17 7.03-11.14 16.69-10.98 26.73.05 6.85 1.95 13.55 5.49 19.41l-5.49 5.49a25.08 25.08 0 0 0-20.5 0l-62.98-62.98c-3.62-3.51-9.38-3.51-13 0-3.51 3.62-3.51 9.38 0 13l63.16 62.98h0a25.03 25.03 0 0 0-1.86 14.9 25.16 25.16 0 0 0 6.98 13.29c3.5 3.79 8.12 6.38 13.18 7.4s10.32.41 15.01-1.73l62.98 63.16h0a9.52 9.52 0 0 0 13 0c3.51-3.62 3.51-9.38 0-13l-62.97-63.71a26.5 26.5 0 0 0 0-20.5l5.31-5.49a37.5 37.5 0 0 0 24.31 5.46c8.49-1 16.38-4.86 22.37-10.96l40.64-40.64h0c20.02-20.05 47.18-31.31 75.51-31.31a106.72 106.72 0 0 1 75.52 31.31l40.46 40.64a37.91 37.91 0 0 0 21.6 10.59c8.16 1.09 16.45-.51 23.62-4.55l5.68 5.68c-1.39 3.24-2.14 6.72-2.2 10.25.09 3.53.84 7 2.2 10.25l-63.34 62.97a9.16 9.16 0 0 0 0 12.82 9.38 9.38 0 0 0 6.59 2.75 9.19 9.19 0 0 0 6.41-2.75l62.79-62.98a25.26 25.26 0 0 0 24.15-1.79c7.22-4.67 11.57-12.68 11.55-21.28-.06-3.53-.8-7.01-2.2-10.25l62.98-62.98h0c3.74-3.59 3.87-9.53.28-13.27s-9.53-3.86-13.27-.28h0zM475.94 83.81c1.38 1.31 2.16 3.13 2.16 5.04a6.96 6.96 0 0 1-2.16 5.04 7.19 7.19 0 0 1-5.14 2.48c-1.98.08-3.91-.68-5.32-2.09-1.4-1.41-2.16-3.33-2.09-5.32a7.08 7.08 0 0 1 2.48-5.14c2.79-2.77 7.29-2.77 10.07 0h0zM83.81 94.61c-1.41-1.33-2.21-3.18-2.2-5.12a7.5 7.5 0 0 1 7.14-7.14c1.89.03 3.71.75 5.12 2.02 2.79 2.85 2.79 7.4 0 10.25-2.79 2.77-7.29 2.77-10.07 0h0zm.73 381.33c-1.39-1.34-2.17-3.2-2.17-5.12s.79-3.78 2.17-5.12c2.83-2.44 7.06-2.28 9.7.36s2.8 6.87.36 9.7c-1.29 1.4-3.09 2.21-5 2.25a6.95 6.95 0 0 1-5.07-2.07h0zm324.76-39.36l-40.46-40.46a125.19 125.19 0 0 0-79.45-36.61v-48.33c0-2.43-.96-4.75-2.68-6.47-1.71-1.72-4.04-2.68-6.47-2.68-5.05 0-9.15 4.1-9.15 9.15v47.96a124.69 124.69 0 0 0-79.27 36.61l-40.46 40.46c-3.73 3.53-8.68 5.49-13.82 5.49s-10.08-1.96-13.82-5.49c-3.66-3.67-5.71-8.64-5.71-13.82s2.05-10.15 5.71-13.82l41-40.46c21.43-21.09 34.45-49.27 36.61-79.27h48.7a9.34 9.34 0 0 0 9.15-9.15c0-2.43-.96-4.76-2.68-6.47a9.15 9.15 0 0 0-6.47-2.68h-48.7a124.13 124.13 0 0 0-36.61-79.45l-41-40.46c-3.66-3.67-5.71-8.64-5.71-13.82s2.05-10.15 5.71-13.82c3.69-3.61 8.65-5.63 13.82-5.63s10.13 2.02 13.82 5.63l40.46 40.64h0a124.42 124.42 0 0 0 79.27 36.61v48.7c0 2.43.96 4.76 2.68 6.47a9.15 9.15 0 0 0 6.47 2.68c2.42 0 4.76-.96 6.47-2.68 1.72-1.71 2.68-4.04 2.68-6.47V199.7a124.87 124.87 0 0 0 79.45-36.61l40.46-40.64c3.74-3.53 8.68-5.49 13.82-5.49s10.09 1.96 13.82 5.49c3.66 3.67 5.71 8.64 5.71 13.82s-2.05 10.15-5.71 13.82l-40.64 40.46A123.93 123.93 0 0 0 359.69 270h-48.52c-5.05 0-9.15 4.1-9.15 9.15.1 5.02 4.14 9.05 9.15 9.15h48.7c2.15 30 15.17 58.18 36.61 79.27l40.64 40.46a19.61 19.61 0 0 1 5.71 13.82c0 5.18-2.05 10.15-5.71 13.82-3.68 3.66-8.62 5.75-13.8 5.86-5.18.1-10.21-1.8-14.02-5.31v.37zm66.64 39.36c-2.79 2.77-7.29 2.77-10.07 0-1.29-1.32-2-3.1-2.01-4.94 0-1.9.71-3.73 2.01-5.13a7.84 7.84 0 0 1 5.13-2.01c1.84 0 3.62.73 4.94 2.01a7.01 7.01 0 0 1 2.2 5.13 6.58 6.58 0 0 1-2.2 4.94h0z"/></svg>