<svg id="Layer_1" height="512" viewBox="0 0 24 24" width="512" xmlns="http://www.w3.org/2000/svg" data-name="Layer 1" fill="white">
    <path fill="#ffffff"
        d="m21 15.5a.5.5 0 0 1 -.5.5h-3a1.5 1.5 0 0 0 -1.5 1.5v3a.5.5 0 0 1 -1 0v-3a2.5 2.5 0 0 1 2.5-2.5h3a.5.5 0 0 1 .5.5zm-.5-6.5h-3a1.5 1.5 0 0 1 -1.5-1.5v-3a.5.5 0 0 0 -1 0v3a2.5 2.5 0 0 0 2.5 2.5h3a.5.5 0 0 0 0-1zm-16.5.5a.5.5 0 0 0 .5.5h3a2.5 2.5 0 0 0 2.5-2.5v-3a.5.5 0 0 0 -1 0v3a1.5 1.5 0 0 1 -1.5 1.5h-3a.5.5 0 0 0 -.5.5zm5 8v3a.5.5 0 0 0 1 0v-3a2.5 2.5 0 0 0 -2.5-2.5h-3a.5.5 0 0 0 0 1h3a1.5 1.5 0 0 1 1.5 1.5z" />
</svg>