<svg width="30" height="30" viewBox="0 0 30 30" fill="none" xmlns="http://www.w3.org/2000/svg">
<path d="M26.25 30H20V27.5H26.25C26.5815 27.5 26.8995 27.3683 27.1339 27.1339C27.3683 26.8995 27.5 26.5815 27.5 26.25V20H30V26.25C30 27.2446 29.6049 28.1984 28.9017 28.9017C28.1984 29.6049 27.2446 30 26.25 30Z" fill="#DFDFDF"/>
<path d="M2.5 10H0V3.75C0 2.75544 0.395088 1.80161 1.09835 1.09835C1.80161 0.395088 2.75544 0 3.75 0H10V2.5H3.75C3.41848 2.5 3.10054 2.6317 2.86612 2.86612C2.6317 3.10054 2.5 3.41848 2.5 3.75V10Z" fill="#DFDFDF"/>
<path d="M10 30H3.75C2.75544 30 1.80161 29.6049 1.09835 28.9017C0.395088 28.1984 0 27.2446 0 26.25V20H2.5V26.25C2.5 26.5815 2.6317 26.8995 2.86612 27.1339C3.10054 27.3683 3.41848 27.5 3.75 27.5H10V30Z" fill="#DFDFDF"/>
<path d="M30 10H27.5V3.75C27.5 3.41848 27.3683 3.10054 27.1339 2.86612C26.8995 2.6317 26.5815 2.5 26.25 2.5H20V0H26.25C27.2446 0 28.1984 0.395088 28.9017 1.09835C29.6049 1.80161 30 2.75544 30 3.75V10Z" fill="#DFDFDF"/>
</svg>
