<?xml version="1.0" encoding="UTF-8"?><svg id="Layer_1" xmlns="http://www.w3.org/2000/svg" viewBox="0 0 24 20"><path d="M24,6.35c-.12,.51-.26,1.17-.43,1.82-.42,1.67-.86,3.33-1.28,5-.08,.34-.26,.47-.61,.55-1.49,.37-2.98,.75-4.46,1.19-1.63,.48-3.24,1.02-4.86,1.55-.28,.09-.52,.07-.79-.02-2.8-.86-5.6-1.71-8.4-2.55-.33-.1-.67-.15-1.01-.2-.23-.03-.37-.15-.42-.37C1.18,11.07,.6,8.81,.05,6.54c-.19-.76,.13-1.34,.84-1.68,.93-.44,1.92-.65,2.92-.8,2.22-.34,4.46-.47,6.71-.55,2.98-.11,5.94,.1,8.89,.45,1.21,.14,2.41,.35,3.54,.84,.62,.27,1.03,.69,1.04,1.56ZM11.68,15.52V4.37c-.12,0-.19,0-.25,0-2.44,.09-4.87,.2-7.28,.56-.96,.14-1.91,.32-2.8,.72-.39,.18-.51,.37-.42,.76,.52,2.09,1.05,4.18,1.59,6.26,.02,.08,.12,.19,.2,.21,2.03,.58,4.07,1.14,6.09,1.73,.96,.28,1.92,.61,2.87,.91Zm.64,0c.58-.19,1.11-.38,1.64-.53,2.43-.71,4.87-1.4,7.3-2.11,.1-.03,.21-.15,.24-.25,.52-2.01,1.03-4.01,1.53-6.02,.16-.63,.07-.78-.55-1.03-1.15-.47-2.37-.66-3.59-.77-1.87-.17-3.75-.28-5.63-.4-.32-.02-.64,0-.95,0V15.52Z" style="fill:#fff;"/></svg>