<svg width="24" height="20" viewBox="0 0 24 20" fill="none" xmlns="http://www.w3.org/2000/svg">
<path d="M3.67003 4.16839C3.70016 3.92636 3.72929 3.69536 3.75808 3.46538C3.82303 2.93979 3.87926 2.41286 3.95492 1.88862C4.12231 0.72864 5.23374 -0.12 6.39506 0.0139075C7.92428 0.188657 9.45306 0.361509 10.9814 0.532465C12.749 0.733326 14.5164 0.934188 16.2838 1.13505C18.0122 1.33189 19.7413 1.52573 21.469 1.72893C22.0465 1.79701 22.5761 2.08318 22.9495 2.52888C23.3228 2.97458 23.5118 3.54612 23.4777 4.12655C23.4492 4.61564 23.3772 5.1024 23.323 5.59016C23.2065 6.62638 23.089 7.66249 22.9705 8.69849C22.8404 9.84541 22.71 10.9923 22.5795 12.1392C22.463 13.1701 22.3472 14.2009 22.2323 15.2315C22.1988 15.5328 22.1473 15.8271 22.0241 16.1059C21.7332 16.7631 21.228 17.1655 20.5441 17.3563L20.3663 17.4058C20.3663 17.4892 20.3626 17.5732 20.3663 17.6532C20.4222 18.8249 19.5528 19.6726 18.6125 19.9076C18.391 19.9638 18.1637 19.9932 17.9352 19.9949C12.9197 20.0001 7.9042 20.0013 2.88869 19.9986C1.65908 19.9986 0.693604 19.0362 0.693604 17.8159C0.693604 14.0721 0.693604 10.3286 0.693604 6.58543C0.693604 5.97113 0.863666 5.41742 1.26271 4.9474C1.69456 4.44023 2.24325 4.16906 2.9168 4.17007C3.16453 4.16873 3.40891 4.16839 3.67003 4.16839ZM1.95836 14.1927C2.03268 14.1418 2.07854 14.112 2.12307 14.0799C3.2191 13.2827 4.31513 12.4857 5.41117 11.689C6.46067 10.9267 7.7251 10.9886 8.6976 11.8477C9.64656 12.6859 10.5963 13.5235 11.5468 14.3604C12.0687 14.8204 12.6221 14.875 13.2207 14.5255C15.1286 13.4147 17.0368 12.3045 18.9452 11.1949C19.06 11.1279 19.1062 11.0569 19.1056 10.9207C19.1002 9.50361 19.0902 8.08653 19.1076 6.66912C19.116 5.9805 18.5719 5.42612 17.8636 5.42779C13.6127 5.43828 9.36111 5.44007 5.10887 5.43315C4.38376 5.43315 3.65832 5.4365 2.93287 5.43315C2.57266 5.43081 2.31657 5.59585 2.13412 5.89346C2.00021 6.11407 1.95367 6.35745 1.95401 6.61355C1.95401 9.06852 1.95401 11.5235 1.95401 13.9785L1.95836 14.1927ZM19.1039 12.5908C19.0212 12.6354 18.968 12.6625 18.9161 12.6913C17.2222 13.671 15.5282 14.6508 13.8343 15.6306C12.7908 16.2331 11.6098 16.1136 10.7009 15.3145C9.72065 14.4526 8.74056 13.5905 7.76058 12.7281C7.30195 12.3264 6.68932 12.2996 6.20458 12.6558C4.82399 13.6686 3.44429 14.6824 2.06549 15.6972C2.02883 15.721 1.99929 15.7543 1.98002 15.7936C1.96075 15.8328 1.95245 15.8765 1.95602 15.9201C1.96003 16.5338 1.95803 17.1474 1.95769 17.7614C1.95769 18.3408 2.34301 18.7322 2.91915 18.7322C7.91837 18.7322 12.9176 18.7322 17.9168 18.7322C18.0284 18.7323 18.1396 18.7211 18.2489 18.6987C18.7956 18.5842 19.1062 18.1996 19.1059 17.6465C19.1059 16.0343 19.1059 14.422 19.1059 12.8098L19.1039 12.5908ZM4.93982 4.16839H5.18186C9.40463 4.16839 13.6274 4.16917 17.8502 4.17074C18.0562 4.16821 18.2618 4.18819 18.4635 4.23033C19.5973 4.48676 20.3676 5.46027 20.3676 6.62426C20.3676 9.70414 20.3676 12.7833 20.3676 15.8619V16.0775C20.6884 15.9231 20.8624 15.7025 20.9083 15.3865C20.9331 15.2158 20.9448 15.043 20.9645 14.8713C21.0804 13.863 21.1965 12.8549 21.313 11.847C21.4295 10.8391 21.5476 9.83124 21.6672 8.82336C21.7755 7.8927 21.883 6.96215 21.9899 6.03172C22.0639 5.3893 22.1469 4.74754 22.2072 4.10378C22.2618 3.52296 21.8895 3.066 21.3137 2.99101C20.6227 2.9023 19.9298 2.82697 19.2381 2.74663C18.3298 2.64106 17.4215 2.53617 16.5131 2.43195C15.4994 2.315 14.4858 2.19828 13.4721 2.08178L7.65479 1.40956C7.2062 1.35801 6.75862 1.29306 6.30835 1.26025C5.66961 1.21372 5.22504 1.6044 5.16043 2.23711C5.13498 2.48685 5.10218 2.73558 5.07373 2.98498C5.0292 3.37064 4.98602 3.75797 4.93982 4.16839Z" fill="url(#paint0_linear_624_76)"/>
<path d="M12.2465 11.777C11.9325 11.7778 11.6214 11.7166 11.331 11.5971C11.0406 11.4776 10.7766 11.3021 10.554 11.0806C10.1045 10.6331 9.85118 10.0255 9.84971 9.3913C9.84825 8.7571 10.0988 8.14829 10.5462 7.6988C10.9936 7.24932 11.6012 6.99598 12.2354 6.99451C13.5487 6.9905 14.6307 8.07314 14.6297 9.39079C14.6279 10.0226 14.3764 10.6281 13.9299 11.0751C13.4834 11.5221 12.8783 11.7745 12.2465 11.777ZM12.2381 10.5116C12.4608 10.5119 12.6786 10.4461 12.8639 10.3226C13.0491 10.1991 13.1937 10.0234 13.2791 9.81777C13.3646 9.61213 13.3871 9.38578 13.3439 9.16733C13.3007 8.94888 13.1937 8.74815 13.0364 8.59052C12.8791 8.4329 12.6786 8.32546 12.4602 8.2818C12.2418 8.23813 12.0154 8.26021 11.8096 8.34523C11.6038 8.43024 11.4278 8.57439 11.3039 8.75943C11.1801 8.94446 11.1138 9.16209 11.1136 9.38477C11.1136 9.68322 11.232 9.96948 11.4428 10.1807C11.6537 10.392 11.9397 10.511 12.2381 10.5116Z" fill="url(#paint1_linear_624_76)"/>
<defs>
<linearGradient id="paint0_linear_624_76" x1="16.7412" y1="-1.0101" x2="-2.21632" y2="17.1365" gradientUnits="userSpaceOnUse">
<stop offset="0.0833333" stop-color="white"/>
<stop offset="1" stop-color="#DADADA"/>
</linearGradient>
<linearGradient id="paint1_linear_624_76" x1="16.7412" y1="-1.0101" x2="-2.21632" y2="17.1365" gradientUnits="userSpaceOnUse">
<stop offset="0.0833333" stop-color="white"/>
<stop offset="1" stop-color="#DADADA"/>
</linearGradient>
</defs>
</svg>
