<?xml version="1.0" encoding="UTF-8"?><svg id="Layer_1" xmlns="http://www.w3.org/2000/svg" viewBox="0 0 433.2 377.67"><path d="M415.89,234.72c-18.17,0-27.7,5.95-36.1,11.2-6.95,4.34-13.15,8.16-24.07,9.2,3.39-12.32,5.2-25.06,5.2-38.05,0-79.31-64.53-143.84-143.84-143.84S73.24,137.76,73.24,217.07c0,13.02,1.81,25.77,5.2,38.06-10.93-1.03-17.12-4.85-24.07-9.2-8.4-5.25-17.93-11.21-36.1-11.21-3.09,0-5.6,2.5-5.6,5.6s2.51,5.6,5.6,5.6c14.96,0,22.01,4.41,30.17,9.51,8.39,5.25,17.91,11.2,36.06,11.2,.53,0,1.03-.02,1.54-.06,.02,0,.04,0,.06,0,17.13-.31,26.36-6.07,34.51-11.17,8.16-5.09,15.21-9.49,30.16-9.49s22.01,4.4,30.17,9.5c8.4,5.25,17.93,11.21,36.1,11.21s27.7-5.96,36.11-11.21c8.16-5.1,15.2-9.5,30.16-9.5s22.01,4.41,30.18,9.51c8.16,5.11,17.41,10.89,34.6,11.2h1.5c18.2,0,27.74-5.96,36.15-11.21,8.16-5.1,15.21-9.5,30.17-9.5,3.09,0,5.6-2.5,5.6-5.6s-2.5-5.6-5.6-5.6h0Zm-132.6,0c-18.17,0-27.7,5.96-36.11,11.21-8.16,5.1-15.2,9.5-30.16,9.5s-22.01-4.4-30.17-9.5c-8.4-5.25-17.93-11.21-36.11-11.21s-27.68,5.95-36.09,11.2c-7.1,4.43-13.33,8.32-24.66,9.27-3.7-12.24-5.57-25.04-5.57-38.11,0-73.14,59.5-132.64,132.64-132.64s132.64,59.5,132.64,132.64c0,13.06-1.88,25.87-5.57,38.16-11.38-.93-17.62-4.84-24.73-9.29-8.4-5.26-17.93-11.22-36.11-11.22h0Z" style="fill:#fff;"/><path d="M379.65,310.95c-14.63,0-21.53-4.39-29.52-9.48-8.27-5.27-17.64-11.23-35.54-11.23s-27.27,5.96-35.54,11.23c-7.99,5.09-14.89,9.48-29.52,9.48s-21.52-4.39-29.5-9.48c-8.26-5.27-17.63-11.23-35.52-11.23s-27.26,5.96-35.52,11.23c-7.99,5.09-14.88,9.48-29.51,9.48s-21.51-4.39-29.49-9.48c-8.26-5.27-17.63-11.23-35.52-11.23-3.09,0-5.6,2.5-5.6,5.6s2.51,5.6,5.6,5.6c14.62,0,21.51,4.39,29.49,9.48,8.26,5.27,17.63,11.23,35.52,11.23s27.26-5.96,35.52-11.23c7.98-5.09,14.88-9.48,29.51-9.48s21.52,4.39,29.5,9.48c8.26,5.27,17.63,11.23,35.52,11.23s27.27-5.96,35.54-11.23c7.99-5.09,14.89-9.48,29.52-9.48s21.53,4.39,29.52,9.48c8.27,5.27,17.64,11.23,35.54,11.23,3.09,0,5.6-2.5,5.6-5.6s-2.5-5.6-5.6-5.6Z" style="fill:#fff;"/><path d="M343.43,345.76c-17.47,0-26.61,5.99-34.66,11.27-7.73,5.06-14.41,9.44-28.53,9.44s-20.8-4.38-28.53-9.44c-8.06-5.28-17.2-11.27-34.66-11.27s-26.59,5.99-34.65,11.27c-7.72,5.06-14.39,9.44-28.5,9.44s-20.79-4.38-28.52-9.44c-8.06-5.28-17.19-11.27-34.66-11.27-3.09,0-5.6,2.5-5.6,5.6s2.51,5.6,5.6,5.6c14.12,0,20.79,4.38,28.52,9.44,8.06,5.28,17.19,11.27,34.66,11.27s26.59-5.99,34.64-11.27c7.72-5.06,14.39-9.44,28.5-9.44s20.8,4.38,28.53,9.44c8.06,5.28,17.2,11.27,34.67,11.27s26.61-5.99,34.67-11.27c7.73-5.06,14.4-9.44,28.52-9.44,3.09,0,5.6-2.5,5.6-5.6,0-3.1-2.5-5.6-5.6-5.6h0Z" style="fill:#fff;"/><path d="M426.1,153.38l-26.7,7.4c-2.98,.82-4.73,3.91-3.91,6.89,.69,2.48,2.94,4.11,5.39,4.11,.5,0,1-.07,1.5-.2l26.7-7.4c2.98-.82,4.73-3.91,3.91-6.89-.83-2.98-3.94-4.72-6.89-3.9h0Z" style="fill:#fff;"/><path d="M354.81,85l19.43-19.75c2.17-2.2,2.14-5.75-.07-7.92-2.2-2.17-5.76-2.14-7.92,.07l-19.43,19.75c-2.17,2.2-2.14,5.75,.07,7.92,1.09,1.07,2.51,1.61,3.93,1.61s2.9-.56,3.99-1.68h0Z" style="fill:#fff;"/><path d="M264.9,38.03c2.49,0,4.76-1.67,5.41-4.2l6.95-26.82c.78-3-1.02-6.05-4.02-6.82-2.99-.8-6.05,1.02-6.82,4.02l-6.95,26.82c-.78,3,1.02,6.05,4.02,6.82,.47,.12,.95,.18,1.41,.18h0Z" style="fill:#fff;"/><path d="M166.16,38.86c.5,0,1-.07,1.5-.2,2.98-.82,4.73-3.91,3.9-6.89l-7.39-26.7c-.83-2.98-3.91-4.73-6.89-3.91-2.98,.82-4.73,3.91-3.9,6.89l7.39,26.7c.69,2.48,2.94,4.11,5.39,4.11h0Z" style="fill:#fff;"/><path d="M81.07,88.94c1.45,0,2.89-.56,3.99-1.67,2.17-2.2,2.14-5.75-.07-7.92l-19.75-19.43c-2.2-2.16-5.74-2.14-7.92,.07-2.17,2.2-2.14,5.75,.07,7.92l19.75,19.43c1.09,1.07,2.51,1.61,3.93,1.61Z" style="fill:#fff;"/><path d="M32.43,174.85c2.49,0,4.77-1.67,5.42-4.2,.77-3-1.03-6.05-4.02-6.82l-26.82-6.95c-3-.81-6.05,1.02-6.82,4.02-.77,3,1.03,6.05,4.02,6.82l26.82,6.95c.47,.12,.95,.18,1.41,.18h0Z" style="fill:#fff;"/></svg>