<svg width="17" height="20" viewBox="0 0 17 20" fill="none" xmlns="http://www.w3.org/2000/svg">
<path d="M13.8001 1.05088H1.81973C1.81973 1.09891 1.81065 1.14434 1.81065 1.18977V11.1193C1.81065 13.0533 1.81065 14.9873 1.81065 16.9213C1.81065 17.5522 1.81065 18.1825 1.81065 18.8125C1.81065 18.8553 1.81065 18.8969 1.81713 18.9527H6.27831C6.36182 18.9481 6.44521 18.9638 6.52137 18.9984C6.59753 19.0329 6.66421 19.0854 6.71573 19.1513C6.77778 19.2233 6.81776 19.3117 6.83088 19.4058C6.844 19.5 6.82971 19.5959 6.78971 19.6822C6.75297 19.7722 6.6911 19.8499 6.61147 19.9058C6.53185 19.9617 6.43783 19.9936 6.34061 19.9976C6.31206 19.9976 6.2835 19.9976 6.25365 19.9976H1.3213C1.21296 20.0082 1.10406 19.9838 1.01061 19.928C0.91716 19.8721 0.84408 19.7878 0.802111 19.6873C0.771057 19.6107 0.756037 19.5286 0.757979 19.4459C0.757979 18.8696 0.757979 18.2946 0.757979 17.7183V2.27228C0.759277 1.70247 0.772257 1.13785 0.759277 0.573222C0.756284 0.496584 0.769305 0.420164 0.797508 0.348842C0.825711 0.277519 0.868476 0.212861 0.923074 0.158996C0.977672 0.105131 1.0429 0.0632427 1.1146 0.036006C1.1863 0.00876936 1.26289 -0.00321735 1.33948 0.00081125C4.50916 0.00600319 7.6784 0.00600319 10.8472 0.00081125H14.2817C14.413 -0.00627658 14.5427 0.0332575 14.6477 0.112438C14.7144 0.163014 14.7679 0.22897 14.8036 0.304683C14.8393 0.380396 14.8562 0.463621 14.8528 0.547263C14.8528 1.08722 14.8528 1.62719 14.8528 2.16715C14.8528 2.74605 14.8528 3.32538 14.8528 3.90515C14.8564 4.01761 14.8233 4.12819 14.7586 4.22025C14.6939 4.3123 14.601 4.38083 14.494 4.41553C14.387 4.45024 14.2715 4.44923 14.1651 4.41266C14.0587 4.37609 13.9671 4.30594 13.904 4.21277C13.8397 4.11978 13.8062 4.00906 13.8079 3.89606C13.8079 3.36649 13.8079 2.83821 13.8079 2.30863V1.169C13.8066 1.13265 13.8027 1.09761 13.8001 1.05088Z" fill="url(#paint0_linear)"/>
<path d="M9.16373 10.4171C10.1115 10.3579 11.0057 9.95672 11.68 9.28808C12.3544 8.61943 12.7632 7.72877 12.8305 6.78148C12.874 7.08823 12.9377 7.39176 13.0213 7.69007C13.1143 7.98742 13.2419 8.27278 13.4016 8.54025C13.565 8.81013 13.7607 9.05902 13.9844 9.2814C14.2054 9.50091 14.4526 9.69229 14.7204 9.85122C14.9878 10.0183 15.2781 10.1456 15.5823 10.2289C15.8821 10.3055 16.1884 10.3587 16.5142 10.4249C15.5565 10.4725 14.6506 10.8746 13.9728 11.5529C13.3009 12.2276 12.8953 13.1223 12.8305 14.0723C12.7661 13.1221 12.3588 12.2277 11.6843 11.5553C11.0098 10.883 10.1141 10.4785 9.16373 10.4171Z" fill="url(#paint1_linear)"/>
<path d="M9.55312 18.7255C9.34198 17.2657 8.50219 16.4324 7.03374 16.2256C7.07787 16.2165 7.1181 16.2036 7.16353 16.1984C7.55075 16.1615 7.92485 16.0387 8.25854 15.8388C8.59223 15.639 8.8771 15.3671 9.09234 15.0432C9.33834 14.6829 9.48926 14.2663 9.53106 13.8321C9.53463 13.7957 9.54428 13.7602 9.55961 13.727C9.59864 14.1544 9.73161 14.5679 9.94901 14.938C10.1717 15.305 10.4799 15.6128 10.8472 15.8349C11.2174 16.0553 11.6328 16.1884 12.0621 16.2243C10.6006 16.432 9.76599 17.264 9.55312 18.7255Z" fill="url(#paint2_linear)"/>
<path d="M4.96475 6.69711C6.14202 6.52189 6.80789 5.85862 6.9896 4.67356C7.16094 5.84953 7.82551 6.5141 9.00278 6.69062C8.97519 6.70022 8.94701 6.70802 8.91841 6.71399C8.63991 6.73963 8.36938 6.82084 8.12281 6.95282C7.87624 7.0848 7.65863 7.26487 7.48284 7.48239C7.21891 7.79848 7.05571 8.18637 7.01427 8.59607C7.01062 8.63077 7.00232 8.66482 6.9896 8.69731C6.80918 7.53561 6.14462 6.87234 4.96475 6.69711Z" fill="url(#paint3_linear)"/>
<defs>
<linearGradient id="paint0_linear" x1="11.8537" y1="-1.0101" x2="-5.61322" y2="10.5505" gradientUnits="userSpaceOnUse">
<stop offset="0.0833333" stop-color="white"/>
<stop offset="1" stop-color="#BABABA"/>
</linearGradient>
<linearGradient id="paint1_linear" x1="11.8537" y1="-1.0101" x2="-5.61322" y2="10.5505" gradientUnits="userSpaceOnUse">
<stop offset="0.0833333" stop-color="white"/>
<stop offset="1" stop-color="#BABABA"/>
</linearGradient>
<linearGradient id="paint2_linear" x1="11.8537" y1="-1.0101" x2="-5.61322" y2="10.5505" gradientUnits="userSpaceOnUse">
<stop offset="0.0833333" stop-color="white"/>
<stop offset="1" stop-color="#BABABA"/>
</linearGradient>
<linearGradient id="paint3_linear" x1="11.8537" y1="-1.0101" x2="-5.61322" y2="10.5505" gradientUnits="userSpaceOnUse">
<stop offset="0.0833333" stop-color="white"/>
<stop offset="1" stop-color="#BABABA"/>
</linearGradient>
</defs>
</svg>
